<svg width="24" height="24" viewBox="0 0 24 24" fill="none" xmlns="http://www.w3.org/2000/svg">
<g clip-path="url(#clip0_255_262)">
<path d="M20.42 11.18L12.71 3.30001C12.617 3.20628 12.5064 3.13189 12.3846 3.08112C12.2627 3.03035 12.132 3.00421 12 3.00421C11.868 3.00421 11.7373 3.03035 11.6154 3.08112C11.4936 3.13189 11.383 3.20628 11.29 3.30001L3.57999 11.19C3.39343 11.3781 3.24609 11.6013 3.14652 11.8468C3.04695 12.0923 2.99715 12.3551 2.99999 12.62V21C2.99922 21.5119 3.19477 22.0046 3.54637 22.3767C3.89797 22.7488 4.37885 22.9719 4.88999 23H19.11C19.6211 22.9719 20.102 22.7488 20.4536 22.3767C20.8052 22.0046 21.0008 21.5119 21 21V12.62C21.0008 12.0829 20.7928 11.5666 20.42 11.18ZM9.99999 21V15H14V21H9.99999ZM19 21H16V14C16 13.7348 15.8946 13.4804 15.7071 13.2929C15.5196 13.1054 15.2652 13 15 13H8.99999C8.73478 13 8.48042 13.1054 8.29289 13.2929C8.10535 13.4804 7.99999 13.7348 7.99999 14V21H4.99999V12.58L12 5.43001L19 12.62V21Z" fill="#F89630"/>
</g>
<defs>
<clipPath id="clip0_255_262">
<rect width="24" height="24" fill="white"/>
</clipPath>
</defs>
</svg>
